<svg width="34" height="32" viewBox="0 0 34 32" fill="none" xmlns="http://www.w3.org/2000/svg">
<path d="M24.4375 20.515C24.4375 15.9 20.4213 15.374 17.1944 14.952C13.6776 14.492 11.6875 14.092 11.6875 11.242C11.6875 8.85 14.3512 8 16.6324 8C17.7692 7.96544 18.8985 8.18569 19.9271 8.64262C20.9557 9.09954 21.8541 9.78004 22.5484 10.628L24.2016 9.372C23.4582 8.47217 22.533 7.71952 21.4795 7.1573C20.4259 6.59509 19.2647 6.23441 18.0625 6.096V3H15.9375V6.022C12.0966 6.242 9.5625 8.282 9.5625 11.242C9.5625 15.972 13.6319 16.505 16.9012 16.932C20.3575 17.385 22.3125 17.774 22.3125 20.515C22.3125 23.547 18.9837 24 17 24C13.3556 24 11.8171 23.036 10.3891 21.372L8.73588 22.628C9.57819 23.6727 10.6676 24.5182 11.9177 25.0975C13.1678 25.6767 14.5441 25.9737 15.9375 25.965V29H18.0625V25.955C22.0214 25.651 24.4375 23.628 24.4375 20.515Z" fill="white"/>
</svg>
