<svg width="186" height="54" viewBox="0 0 186 54" fill="none" xmlns="http://www.w3.org/2000/svg">
<g clip-path="url(#clip0_1_799)">
<path fill-rule="evenodd" clip-rule="evenodd" d="M14.4177 54H18.7445V32.4H14.4177V54ZM30.2783 53.676H34.1536V40.0478L50.4656 54V32.724H46.6011V46.1194L30.2783 32.4V53.676ZM59.3123 48.4448C61.4215 49.9804 63.9533 50.868 66.6675 50.868C69.3112 50.868 71.1658 50.0175 71.1658 48.1393C71.1658 46.5024 69.9829 45.8612 67.9117 45.144L64.5583 44.0556C61.4667 43.0296 59.1155 41.5311 59.1155 38.0869C59.1155 34.4031 62.6748 32.4 66.9311 32.4C69.5387 32.4 71.9152 33.0126 73.7716 34.0976V37.7511C71.8411 36.4179 69.7283 35.4999 67.0142 35.4999C64.6774 35.4999 62.9312 36.315 62.9312 38.0143C62.9312 39.5499 64.0273 40.1642 65.9578 40.7818L69.694 42.0069C73.3147 43.1966 74.9761 45.0411 74.9761 48.0752C74.9761 51.8923 71.3825 54 66.6675 54C63.5687 54 60.934 53.19 59.3123 52.1674V48.4448ZM85.0706 54H89.3956V32.4H85.0706V54ZM109.686 50.7313C114.562 50.7313 117.167 47.8086 117.167 43.1949C117.167 38.5476 114.56 35.6349 109.686 35.6349H104.864V50.7313H109.686ZM100.928 32.4H109.83C116.683 32.4 121.115 36.6188 121.115 43.1949C121.115 49.7762 116.683 54 109.83 54H100.928V32.4ZM142.745 32.4V35.6349H132.277V40.8324H141.665V44.0302H132.275V50.7313H142.745V54H128.326V32.4H142.745ZM158.098 42.1808H162.391C164.931 42.1808 166.363 40.878 166.363 38.8749C166.363 36.8719 164.931 35.5674 162.391 35.5674H158.098V42.1824V42.1808ZM158.098 45.2351V54H154.279V32.4H162.463C167.129 32.4 170.148 34.6461 170.148 38.8749C170.148 42.4912 168.473 44.5686 164.903 45.1018L173.023 54H168.679L160.816 45.2368H158.1L158.098 45.2351ZM12.9062 11.1206C14.5983 10.5418 15.9165 8.80538 15.9165 6.41756C15.9165 2.43844 12.9062 0.376312 8.0901 0.376312H0V22.5889H8.84132C13.6575 22.5889 16.6678 20.3816 16.6678 16.2219C16.6678 13.8696 15.0877 11.8074 12.9062 11.1206ZM3.79946 9.70988V3.63319H8.05398C10.7266 3.63319 12.155 4.53769 12.155 6.63525C12.155 8.73281 10.7248 9.70988 8.05398 9.70988H3.79946ZM3.79946 12.8216H8.76548C11.402 12.8216 12.8304 14.0501 12.8304 16.0768C12.8304 18.0664 11.4002 19.3337 8.76728 19.3337H3.80126V12.8199L3.79946 12.8216ZM34.3197 22.95C39.8509 22.95 43.5764 19.8382 43.5764 13.7616V0.376312H39.6631V13.3262C39.6631 17.5956 37.7815 19.5868 34.3197 19.5868C30.8579 19.5868 28.9781 17.5956 28.9781 13.3262V0.376312H25.0649V13.7244C25.0649 19.8383 28.8264 22.95 34.3197 22.95ZM52.7897 20.9959C54.4077 22.0826 57.0424 22.95 60.1268 22.95C64.8309 22.95 68.4047 20.7056 68.4047 16.6556C68.4047 13.4359 66.7505 11.4817 63.1371 10.2161L59.4135 8.91337C57.4939 8.26369 56.4031 7.61231 56.4031 5.98387C56.4031 4.17487 58.1331 3.3075 60.4663 3.3075C63.175 3.3075 65.2824 4.28288 67.202 5.69531V1.8225C65.3582 0.666563 62.9872 0.0151875 60.3904 0.0151875C56.1395 0.0151875 52.6019 2.14987 52.6019 6.05644C52.6019 9.70988 54.935 11.3012 58.0194 12.3863L61.3692 13.5439C63.4386 14.3033 64.6052 14.9917 64.6052 16.7282C64.6052 18.7178 62.7615 19.6222 60.1268 19.6222C57.418 19.6222 54.8971 18.6806 52.7897 17.0539V20.9959ZM82.3872 0.376312H78.4757V22.5872H82.3872V0.376312ZM93.5508 22.5602H97.3213V8.11013L113.191 22.9044V0.342562H109.431V14.5462L93.5508 0V22.5602ZM137.644 0.381375V3.70744H127.484V9.05344H136.594V12.3424H127.484V19.2324H137.644V22.5939H123.648V0.381375H137.644ZM146.754 20.9807C148.372 22.0674 151.005 22.9348 154.091 22.9348C158.793 22.9348 162.369 20.6921 162.369 16.6404C162.369 13.4207 160.713 11.4683 157.101 10.2009L153.376 8.89988C151.456 8.2485 150.366 7.59713 150.366 5.96869C150.366 4.15969 152.096 3.29231 154.429 3.29231C157.137 3.29231 159.245 4.26937 161.164 5.68012V1.809C159.321 0.651375 156.95 0 154.353 0C150.102 0 146.564 2.13469 146.564 6.04125C146.564 9.69469 148.898 11.286 151.982 12.3711L155.332 13.5287C157.401 14.2881 158.568 14.9766 158.568 16.713C158.568 18.7026 156.726 19.6071 154.089 19.6071C151.381 19.6071 148.86 18.6671 146.754 17.0387V20.9807ZM170.385 20.9807C172.003 22.0674 174.638 22.9348 177.722 22.9348C182.426 22.9348 186 20.6921 186 16.6404C186 13.4207 184.344 11.4683 180.732 10.2009L177.007 8.89988C175.089 8.2485 173.997 7.59713 173.997 5.96869C173.997 4.15969 175.728 3.29231 178.06 3.29231C180.769 3.29231 182.878 4.26937 184.796 5.68012V1.809C182.954 0.651375 180.583 0 177.986 0C173.733 0 170.197 2.13469 170.197 6.04125C170.197 9.69469 172.53 11.286 175.615 12.3711L178.964 13.5287C181.034 14.2881 182.201 14.9766 182.201 16.713C182.201 18.7026 180.357 19.6071 177.722 19.6071C175.013 19.6071 172.492 18.6671 170.385 17.0387V20.9807Z" fill="white" fill-opacity="0.5"/>
</g>
<defs>
<clipPath id="clip0_1_799">
<rect width="186" height="54" fill="white"/>
</clipPath>
</defs>
</svg>
