<svg width="277" height="58" viewBox="0 0 277 58" fill="none" xmlns="http://www.w3.org/2000/svg">
<path d="M29.9299 53.985C45.1669 53.985 57.5123 42.4857 57.5123 28.2971C57.5123 14.1138 45.1669 2.6145 29.9299 2.6145C14.6966 2.6145 2.34741 14.1138 2.34741 28.2971C2.34741 42.4857 14.6966 53.985 29.9299 53.985Z" fill="#263238"/>
<path d="M25.6903 32.5793H35.8414L38.8067 34.3692H25.2423L19.1547 51.8929C12.4282 49.4659 6.20263 43.8377 3.59256 37.5125C0.808615 31.3844 0.808582 23.6847 3.65301 17.5319C6.31978 11.2032 12.725 5.49055 19.5421 3.1428C24.9059 1.07489 32.0841 0.856656 37.7729 2.48283C44.3009 4.2234 50.4642 8.58094 54.0495 14.269C58.0563 20.5062 59.1808 28.4312 56.7465 35.5519C55.2081 40.2755 52.0348 44.7986 47.6727 48.0351L40.1789 36.409L50.6097 41.8243C50.6682 41.8243 50.6986 41.7644 50.6682 41.7081L37.0055 30.7244L54.675 33.2358C54.7355 33.2358 54.76 33.2095 54.76 33.1813L54.6466 33.0986L37.9844 27.6586L55.2986 23.7639C55.3573 23.7639 55.3573 23.7129 55.327 23.6847L37.5669 24.7618L51.4734 14.9573C51.5036 14.9045 51.3826 14.8781 51.3524 14.9326L35.7317 22.3085L44.3557 8.14107C44.3557 8.11826 44.3557 8.05838 44.3009 8.08822L33.0328 20.4007L35.195 4.22343C35.195 4.19344 35.1345 4.16711 35.0759 4.19343L29.8935 19.9026L25.3556 3.72355C25.3254 3.69708 25.2631 3.66723 25.2347 3.72355L26.484 20.5062L15.7829 7.5373C15.7469 7.50731 15.7206 7.53735 15.6904 7.56368L23.7851 21.9159L8.48382 14.13C8.4554 14.13 8.39689 14.16 8.39689 14.1845L22.0029 24.5909L4.63395 22.8837C4.57165 22.9137 4.57165 22.9629 4.63395 22.9894L21.4737 27.5775L4.72277 32.1603C4.69057 32.1833 4.69057 32.2413 4.72277 32.2659L22.0029 30.3916L8.42522 41.1307C8.3968 41.1307 8.36671 41.1852 8.42522 41.2169L8.60665 41.1605L19.4816 35.8579L22.035 32.0776H24.9362L22.9233 30.7524L29.6517 20.7014L25.6827 32.5738L25.6903 32.5795" fill="white" fill-opacity="0.5"/>
<path d="M75.7918 45.8112H62.2368L73.091 9.73096H100.878L98.2297 18.293H84.0492L82.231 24.4351H96.4115L94.0207 32.3161H79.8421L75.7918 45.8112Z" fill="white" fill-opacity="0.5"/>
<path d="M107.16 45.8112H93.7621L101.708 19.4528H115.106L107.16 45.8112ZM115.833 16.9378H102.435L104.616 9.73096H118.014L115.833 16.9378Z" fill="white" fill-opacity="0.5"/>
<path d="M141.922 45.8112H128.782L129.716 42.8616C127.066 44.9401 124.367 46.4395 120.056 46.4395C115.692 46.4395 112.943 44.5036 112.943 40.3924C112.943 35.8483 114.865 29.0761 117.72 24.3366C119.797 20.8061 123.536 18.9688 127.951 18.9688C131.74 18.9688 134.545 20.5176 135.637 22.45L139.378 9.73096H152.776L141.922 45.8112ZM131.846 27.2862C130.65 27.2862 129.457 27.6276 128.782 29.1728C127.794 31.3974 126.911 33.5744 126.911 35.7497C126.911 36.767 127.692 37.6363 128.988 37.6363C130.028 37.6363 130.703 37.346 131.273 37.0099L133.976 28.351C133.507 27.7209 132.676 27.2862 131.846 27.2862Z" fill="white" fill-opacity="0.5"/>
<path d="M179.756 34.2998H161.268C160.902 35.7007 160.541 36.6704 160.541 37.7809C160.541 38.3141 160.645 39.6676 162.514 39.6676C164.383 39.6676 165.215 38.99 165.993 36.4275H179.132C177.471 43.9248 167.915 46.4855 162.047 46.4855C154.1 46.4855 147.919 45.4225 147.919 38.3141C147.919 34.3965 150.047 27.9147 152.854 24.4829C156.23 20.3717 162.098 18.8264 167.501 18.8264C175.81 18.8264 181.21 20.421 181.21 26.9961C181.21 28.5941 180.484 32.1228 179.756 34.2998ZM166.356 25.4508C164.695 25.4508 163.553 26.5138 162.826 29.173H168.329C168.486 28.6416 168.694 27.8197 168.694 27.3357C168.694 25.8855 167.759 25.4508 166.356 25.4508Z" fill="white" fill-opacity="0.5"/>
<path d="M193.223 45.8112H179.823L190.677 9.73096H204.077L193.223 45.8112Z" fill="white" fill-opacity="0.5"/>
<path d="M210.926 45.8112H197.524L205.472 19.4528H218.872L210.926 45.8112ZM219.598 16.9378H206.2L208.381 9.73096H221.781L219.598 16.9378Z" fill="white" fill-opacity="0.5"/>
<path d="M243.688 19.4524L244.854 25.4009H234.599L231.586 35.4131C231.327 36.1858 231.118 37.1519 231.118 37.782C231.118 38.9418 231.639 39.3308 233.456 39.3308H236.313L234.338 45.8108H222.393C218.445 45.8108 216.939 44.021 216.939 41.3107C216.939 40.202 217.096 38.9893 217.512 37.6359L224.782 13.6006H238.182L236.415 19.4524H243.688Z" fill="white" fill-opacity="0.5"/>
<path d="M61.9628 49.8636L65.3024 49.8594L63.1743 56.3483L59.8441 56.3496L61.9628 49.8626V49.8636Z" fill="white" fill-opacity="0.5"/>
<path d="M73.62 49.8695L78.5056 49.8666L79.7587 54.1943H79.7927L81.2064 49.8649L84.1056 49.8621L81.9624 56.3368L77.2885 56.3527L75.9333 51.7294H75.9107L74.4289 56.344L71.5278 56.3454L73.62 49.8706V49.8695Z" fill="white" fill-opacity="0.5"/>
<path d="M90.4382 49.8722L94.1161 49.8708L94.7587 53.9486L98.1229 49.8672L101.527 49.863L95.9154 56.3396L91.833 56.3424L90.4382 49.8711V49.8722Z" fill="white" fill-opacity="0.5"/>
<path d="M107.93 49.8742L115.528 49.8687L115.099 51.1798L110.731 51.184L110.308 52.5145L114.403 52.5131L113.993 53.7627L109.9 53.7641L109.476 55.0488L113.889 55.0446L113.445 56.3575L105.806 56.3631L107.93 49.8742Z" fill="white" fill-opacity="0.5"/>
<path d="M140.562 51.4538L137.96 51.4552L138.476 49.8818L147.015 49.8748L146.501 51.4482L143.9 51.451L142.305 56.333L138.969 56.3372L140.562 51.4534V51.4538Z" fill="white" fill-opacity="0.5"/>
<path d="M153.925 49.8657L158.984 49.8629L159.23 54.1923H159.251L162.267 49.8611L167.351 49.8555L165.24 56.3443L162.144 56.3472L163.732 51.4599H163.707L159.948 56.3489L156.722 56.3531L156.267 51.4658H156.233L154.647 56.339L151.814 56.3405L153.925 49.8657Z" fill="white" fill-opacity="0.5"/>
<path d="M188.613 49.8696L193.494 49.8667L194.751 54.1944H194.784L196.197 49.8632L199.095 49.8618L196.974 56.3524L192.24 56.3398L190.924 51.7287H190.903L189.386 56.3415L186.486 56.3443L188.613 49.8696Z" fill="white" fill-opacity="0.5"/>
<path d="M207.103 51.4443L204.499 51.4457L205.015 49.8706L213.555 49.865L213.041 51.4384L210.439 51.4411L208.846 56.339L205.506 56.3432L207.103 51.4436V51.4443Z" fill="white" fill-opacity="0.5"/>
<path d="M125.765 51.8347C125.691 51.7626 125.688 51.6393 125.718 51.539C125.827 51.2098 126.27 50.9934 126.975 50.9934C127.39 50.992 128.029 51.0356 128.213 51.1712C128.407 51.3031 128.47 51.502 128.402 51.6973H131.359C131.707 50.5393 130.925 49.7932 127.585 49.7949C124.412 49.7991 122.613 50.432 122.15 51.8452C122.031 52.2148 122.015 52.6689 122.342 52.9751C123.161 53.7319 126.85 54.0328 127.162 54.4411C127.224 54.5239 127.249 54.6224 127.211 54.7385C127.041 55.2595 126.249 55.3932 125.557 55.3932C125.117 55.3932 124.546 55.3052 124.382 55.1362C124.227 54.9655 124.227 54.7051 124.315 54.5379L121.22 54.5436C120.908 55.5485 120.775 56.5938 125.081 56.592C128.691 56.5878 130.344 55.7649 130.76 54.4855C130.966 53.8589 130.762 53.5123 130.528 53.2887C129.726 52.5197 126.152 52.2363 125.765 51.835" fill="white" fill-opacity="0.5"/>
<path d="M174.149 49.876L181.747 49.8704L181.32 51.1815L176.95 51.1843L176.527 52.5148L180.622 52.5134L180.212 53.763L176.118 53.7644L175.695 55.0509L180.108 55.048L179.664 56.3592L172.025 56.3663L174.149 49.8757V49.876Z" fill="white" fill-opacity="0.5"/>
<path d="M261.776 19.4523L254.505 34.058L254.713 19.4523H241.158L243.755 45.8108C243.422 47.3543 242.874 48.2237 241.835 48.6531C240.697 49.1247 238.125 49.042 237.22 48.9945L237.055 49.003L234.919 56.1641L244.065 56.1726C249.467 56.1726 252.117 53.6435 255.959 48.0346L275.488 19.4517H261.776" fill="#231F20"/>
<path d="M222.219 51.8194C222.146 51.7455 222.144 51.6222 222.172 51.5237C222.284 51.1928 222.724 50.9764 223.429 50.9764C223.845 50.9764 224.484 51.0203 224.667 51.1559C224.864 51.2861 224.926 51.4867 224.856 51.6821H227.814C228.164 50.524 227.379 49.776 224.04 49.7796C220.866 49.7824 219.067 50.4167 218.606 51.8299C218.485 52.1978 218.47 52.6535 218.797 52.958C219.615 53.7165 223.304 54.0175 223.616 54.4258C223.68 54.5068 223.703 54.6071 223.665 54.7233C223.497 55.2442 222.703 55.3762 222.013 55.3779C221.571 55.3779 221 55.29 220.836 55.1192C220.683 54.9485 220.683 54.6898 220.77 54.5226L217.674 54.5254C217.362 55.5321 217.23 56.5775 221.535 56.5757C225.145 56.5701 226.799 55.7486 227.217 54.4674C227.421 53.8408 227.218 53.4941 226.982 53.2724C226.181 52.5033 222.607 52.22 222.22 51.8187" fill="white" fill-opacity="0.5"/>
<path d="M263.889 45.3264C262.547 45.3264 261.462 44.3144 261.462 43.0666C261.462 41.8189 262.547 40.8068 263.889 40.8068C265.229 40.8068 266.315 41.8189 266.315 43.0666C266.315 44.3144 265.229 45.3264 263.889 45.3264ZM263.889 40.3193C262.261 40.3193 260.938 41.5531 260.938 43.0666C260.938 44.5802 262.261 45.8139 263.889 45.8139C265.512 45.8139 266.837 44.5802 266.837 43.0666C266.837 41.5531 265.512 40.3193 263.889 40.3193Z" fill="#231F20"/>
<path d="M263.382 42.8773V42.0835H263.787C264.132 42.0765 264.51 42.0977 264.51 42.4778C264.51 42.8579 264.132 42.8773 263.787 42.8773H263.382ZM265.07 42.4989C265.07 41.9516 264.728 41.6436 263.994 41.6436H262.849V44.4771H263.382V43.3173H263.787L264.548 44.4771H265.134L264.338 43.2768C264.756 43.2294 265.07 42.99 265.07 42.4989Z" fill="#231F20"/>
<path d="M261.755 19.5167L254.507 34.0731L254.715 19.5167H241.207L243.795 45.7837C243.464 47.3218 242.918 48.1877 241.882 48.6171C240.748 49.0852 238.185 49.0026 237.282 48.9551L237.119 48.9635L234.989 56.1018L244.103 56.1088C249.488 56.1088 252.128 53.5903 255.957 48.0008L275.418 19.5164H261.755V19.5167Z" fill="white" fill-opacity="0.5"/>
</svg>
