<svg width="186" height="47" viewBox="0 0 186 47" fill="none" xmlns="http://www.w3.org/2000/svg">
<path d="M105.369 15.8407C105.369 10.7926 105.462 6.09257 105.741 1.74072L91.512 4.2648V5.48332L92.907 5.65739C93.93 5.74443 94.581 6.09257 94.953 6.6148C95.325 7.22406 95.604 8.09443 95.79 9.39998C95.976 11.9241 96.162 17.6685 96.069 26.7204C96.069 35.6852 95.976 41.3426 95.79 43.5185C100.905 44.5629 104.904 44.9981 107.88 44.9981C113.46 44.9981 117.831 43.5185 120.993 40.4722C124.155 37.5129 125.829 33.3352 125.829 28.2C125.829 24.1092 124.62 20.7148 122.202 18.0166C119.784 15.3185 116.715 14.0129 113.088 14.0129C110.67 14.0129 108.159 14.6222 105.369 15.8407ZM105.648 42.6481C105.462 39.8629 105.276 31.5074 105.276 17.8426C106.113 17.5815 107.229 17.4074 108.624 17.4074C110.856 17.4074 112.623 18.4518 113.925 20.6278C115.227 22.8037 115.878 25.4148 115.878 28.7222C115.878 32.8129 115.134 36.1204 113.646 38.9055C112.158 41.6037 110.298 42.9963 107.973 42.9963C107.229 42.8222 106.485 42.7352 105.648 42.6481ZM38.13 2.61109H0.929993V4.35183L2.88299 4.52591C4.37099 4.78702 5.39399 5.30924 6.04499 6.09257C6.69599 6.96294 7.06799 8.35554 7.16099 10.2704C7.90499 19.6704 7.90499 28.4611 7.16099 36.5555C6.97499 38.4704 6.60299 39.8629 6.04499 40.7333C5.39399 41.6037 4.37099 42.1259 2.88299 42.3L0.929993 42.5611V44.3018H24.924V42.5611L22.413 42.387C20.925 42.2129 19.902 41.6037 19.251 40.8204C18.6 39.95 18.228 38.5574 18.135 36.6426C17.856 33.1611 17.67 29.1574 17.67 24.7185L22.692 24.8055C25.389 24.8926 27.249 26.8074 28.179 30.637H30.039V16.45H28.179C27.249 20.1926 25.482 22.1074 22.692 22.1944L17.67 22.2815C17.67 14.4481 17.856 8.87776 18.135 5.48332H25.482C30.69 5.48332 34.224 8.61665 36.27 14.8833L38.502 14.2741L38.13 2.61109ZM33.759 29.4185C33.759 33.9444 35.154 37.687 37.851 40.6463C40.548 43.6055 44.547 44.9981 49.569 44.9981C54.591 44.9981 58.683 43.5185 61.659 40.4722C64.635 37.5129 66.03 33.7704 66.03 29.2444C66.03 24.7185 64.635 20.9759 61.938 18.0166C59.241 15.0574 55.242 13.6648 50.22 13.6648C45.198 13.6648 41.106 15.1444 38.13 18.1907C35.154 21.15 33.759 24.8926 33.759 29.4185ZM54.498 19.4963C55.614 22.0204 56.079 25.3278 56.079 29.3315C56.079 38.5574 54.033 43.0833 50.034 43.0833C47.988 43.0833 46.407 41.7778 45.291 39.1666C44.175 36.5555 43.71 33.2481 43.71 29.3315C43.71 20.1926 45.756 15.6666 49.755 15.6666C51.801 15.5796 53.382 16.8852 54.498 19.4963ZM133.083 40.6463C136.152 43.5185 140.058 44.9981 144.708 44.9981C147.591 44.9981 150.102 44.4759 152.334 43.3444C154.566 42.3 156.333 40.9944 157.542 39.4278L156.612 38.3833C154.566 39.8629 152.241 40.5592 149.544 40.5592C145.824 40.5592 142.941 39.4278 140.988 37.0778C138.942 34.7278 138.012 31.7685 138.198 27.9389H158.1C158.1 23.7611 156.984 20.3666 154.659 17.6685C152.334 15.0574 149.079 13.7518 144.894 13.7518C139.686 13.7518 135.687 15.3185 132.804 18.3648C129.921 21.4111 128.526 25.1537 128.526 29.5926C128.526 34.1185 130.014 37.7741 133.083 40.6463ZM139.965 18.8C140.988 16.7111 142.29 15.6666 144.057 15.6666C146.847 15.6666 148.242 18.9741 148.242 25.6759L138.384 25.85C138.477 23.2389 138.942 20.8889 139.965 18.8ZM183.117 15.3185C180.606 14.2741 177.444 13.6648 173.631 13.6648C169.725 13.6648 166.656 14.6222 164.331 16.45C162.006 18.2778 160.797 20.5407 160.797 23.2389C160.797 25.5889 161.541 27.4166 162.936 28.7222C164.331 30.0278 166.563 31.1592 169.446 32.1166C172.05 32.987 173.91 33.8574 174.84 34.6407C175.77 35.5111 176.328 36.4685 176.328 37.7741C176.328 38.9926 175.863 40.1241 174.84 40.9944C173.91 41.9518 172.608 42.387 170.934 42.387C166.842 42.387 163.773 39.6018 161.634 34.0315L160.053 34.4666L160.425 43.1704C163.773 44.3889 167.493 44.9981 171.585 44.9981C175.863 44.9981 179.118 44.1278 181.536 42.3C183.954 40.5592 185.163 38.0352 185.163 34.9018C185.163 32.8129 184.605 31.0722 183.396 29.7666C182.187 28.4611 180.234 27.3296 177.444 26.2852C174.375 25.2407 172.236 24.2833 171.12 23.4129C170.004 22.5426 169.446 21.4981 169.446 20.1926C169.446 18.887 169.818 17.8426 170.655 16.9722C171.492 16.1018 172.515 15.7537 173.817 15.7537C177.537 15.7537 180.234 18.2778 181.908 23.2389L183.489 22.8037L183.117 15.3185ZM93.651 14.5352C92.349 13.9259 90.954 13.6648 89.373 13.6648C87.792 13.6648 86.211 14.2741 84.444 15.4926C82.677 16.7111 81.375 18.3648 80.352 20.6278L80.445 13.6648L66.309 16.2759V17.4944L67.704 17.5815C69.471 17.7555 70.494 19.0611 70.68 21.4111C71.238 26.8074 71.238 32.5518 70.68 38.6444C70.494 40.9944 69.471 42.2129 67.704 42.4741L66.309 42.6481V44.3018H86.025V42.6481L83.514 42.4741C81.747 42.3 80.724 40.9944 80.538 38.6444C79.98 33.5963 79.887 28.2 80.352 22.6296C80.91 21.7592 82.119 21.237 83.979 21.0629C85.839 20.8889 87.978 21.4111 90.21 22.6296L93.651 14.5352Z" fill="white" fill-opacity="0.5"/>
</svg>
