<svg width="215" height="29" viewBox="0 0 215 29" fill="none" xmlns="http://www.w3.org/2000/svg">
<g clip-path="url(#clip0_1_802)">
<path d="M52.0613 12.1461L51.6914 13.8605H51.5989C51.1365 12.9016 49.8419 11.5649 46.9753 11.5649C42.3516 11.5649 37.6355 14.9357 36.5874 20.2533C35.6935 24.9026 38.067 28.9998 43.5538 28.9998C45.5573 28.9998 47.8692 28.2734 49.0713 26.6752H49.1638L48.8247 28.4186H53.9416L57.1473 12.1461H52.0613ZM50.3968 20.2533C50.0577 21.8515 48.4548 24.4377 45.2491 24.4377C42.105 24.4377 41.4577 21.8225 41.7351 20.3114C42.105 18.4517 43.862 16.1271 46.852 16.1271C49.7803 16.1561 50.7667 18.3355 50.3968 20.2533Z" fill="white" fill-opacity="0.5"/>
<path d="M60.0464 12.1461H64.855L64.5159 13.8605H64.6084C65.2249 13.076 66.427 11.5649 69.3861 11.5649L68.4306 16.5048C65.9955 16.5339 64.2385 16.9988 63.7761 19.4978L62.0191 28.4186H56.8406L60.0464 12.1461Z" fill="white" fill-opacity="0.5"/>
<path d="M72.8688 5.78247H78.0473L75.6122 18.045H75.7047L81.6846 12.1462H87.757L79.866 19.2945L84.3971 28.4187H78.5405L75.2115 20.5731H75.119L73.6086 28.4187H68.3993L72.8688 5.78247Z" fill="white" fill-opacity="0.5"/>
<path d="M96.0483 11.5649C90.8082 11.5649 86.1537 15.8074 85.2906 20.3405C84.3351 25.1641 87.7874 28.9708 92.7501 28.9708C94.5071 28.9708 96.3257 28.4768 97.9286 27.4888C99.5623 26.5589 101.073 25.1641 102.244 23.3335H96.973C96.11 24.1762 95.1236 24.8445 93.5207 24.8445C91.5171 24.8445 90.0067 23.7112 90.0992 21.7643H103.045C103.2 21.3866 103.292 21.096 103.415 20.4858C104.402 15.5168 101.319 11.5649 96.0483 11.5649ZM90.8082 18.4808C91.2089 17.5219 92.6268 15.6912 95.3085 15.6912C97.9903 15.6912 98.6376 17.5219 98.6376 18.4808H90.8082Z" fill="white" fill-opacity="0.5"/>
<path d="M29.7455 5.78247L20.6215 18.6843H20.5599V5.78247H16.152L0 28.4187H6.25735L15.3197 15.5169H15.4122V28.4187H19.8509L28.9133 15.5169H29.0057V28.4187H34.1842V5.78247H29.7455Z" fill="white" fill-opacity="0.5"/>
<path d="M116.516 12.1462H113.249L114.204 7.32251H109.673L109.303 9.18223C108.903 11.3035 107.485 11.9427 105.604 12.1462H105.573L104.803 15.8365H107.361L104.895 28.4187H110.043L112.509 15.8365H115.807L116.516 12.1462Z" fill="white" fill-opacity="0.5"/>
<path d="M196.413 22.2585C194.718 25.9489 190.68 28.9709 186.025 28.9709C180.785 28.9709 177.549 25.0772 178.473 20.2244C179.429 15.4589 184.114 11.5651 189.293 11.5651C193.855 11.5651 196.999 14.4419 197.091 18.4228H191.851C191.512 17.2896 190.742 16.1273 188.553 16.1273C186.118 16.011 184.114 17.8998 183.652 20.2535C183.19 22.6363 184.484 24.4088 186.95 24.4088C189.077 24.4088 190.372 23.2465 191.111 22.2295H196.413V22.2585ZM153.629 0L143.58 5.78257H146.416L137.323 18.6844H137.23V5.78257H132.792L123.699 18.6844H123.606V5.78257H118.428V28.4188H122.928L132.021 15.517H132.114V28.4188H136.552L152.643 5.78257H155.201L153.629 0ZM163.431 28.4188H158.314L158.653 26.6754H158.561C157.359 28.2735 155.047 29 153.043 29C147.557 29 145.183 24.9319 146.077 20.2535C147.094 14.9359 151.841 11.5651 156.465 11.5651C159.301 11.5651 160.626 12.8727 161.088 13.8607H161.181L161.551 12.1463H166.668L163.431 28.4188ZM154.739 24.4669C157.944 24.4669 159.547 21.8517 159.886 20.2826C160.256 18.3357 159.27 16.1563 156.342 16.1563C153.382 16.1563 151.595 18.481 151.225 20.3407C150.947 21.8517 151.595 24.4669 154.739 24.4669ZM179.552 12.1463H176.316L177.271 7.32265H172.74L172.37 9.18237C171.969 11.3036 170.552 11.9429 168.671 12.1463H168.61L167.87 15.8367H170.428L167.962 28.4188H173.11L175.576 15.8367H178.874L179.552 12.1463ZM201.283 5.78257H206.431L204.859 13.8607H204.952C206.061 12.3497 207.541 11.5651 209.822 11.5651C211.456 11.5651 213.336 12.1463 214.199 13.3958C215.309 14.994 215.185 16.4178 214.6 19.3236L212.843 28.4188H207.695L209.421 19.5561C209.575 18.7715 210.068 16.1273 207.325 16.1273C204.428 16.1273 203.934 18.5681 203.78 19.3818L202.023 28.3898H196.876L201.283 5.78257Z" fill="white" fill-opacity="0.5"/>
</g>
<defs>
<clipPath id="clip0_1_802">
<rect width="215" height="29" fill="white"/>
</clipPath>
</defs>
</svg>
